<?xml version="1.0" encoding="UTF-8"?>
<svg id="Flyvemaskinetegning" xmlns="http://www.w3.org/2000/svg" viewBox="0 0 328.5 151.5">
  <defs>
    <style>
      .cls-1 {
        fill: none;
      }

      .cls-1, .cls-2, .cls-3, .cls-4, .cls-5 {
        stroke: #000;
        stroke-miterlimit: 10;
      }

      .cls-2 {
        fill: #aaf1ff;
      }

      .cls-3 {
        fill: #aabcdf;
      }

      .cls-4 {
        fill: #fff;
      }

      .cls-5 {
        fill: #71d1e2;
      }
    </style>
  </defs>
  <path class="cls-4" d="M324,84c-1.86,3.2-7.01,10.62-34,16-18.43,3.67-30,4-30,4-32.67.93-52.4,1.48-64.72,1.31,1.85-1.03,4.18-2.44,6.72-4.31,3.54-2.6,6.21-5.14,8-7-.67-4.8-2.46-6.94-4-8-1.67-1.15-2.92-.96-8-2-4.49-.92-4.74-1.33-8-2-4.95-1.02-8.83-1.01-12-1-30.45.09-54.75,9.19-54.75,9.19-3.08,1.15-7.13,3.07-12.97,6.07-24.54-3.89-47.43-8.9-58.06-14.81,14.72-4.88,23.07-7.93,24.96-10.46.32-.4.46-.79.44-1.17-.18-2.89-7.85-5.4-16.94-6.43,11.98-3.8,22.66-6.49,31.55-8.41,4.89-1.06,15.71-3.29,28.77-4.98,5.67-.73,11.49-1.33,18-2,7.22-.74,10.99-1.05,11-1,0,.02-.33.08-.33.08,0,0,.11-.03.33-.08,19.21-3.91,35-5.49,46.18-6.18,7.46-.46,13.83-.71,24.82-.82,8.81-.09,20.73-.14,35,0,22.16.23,38.01,4.94,41,8,2.62,2.68,5,6,5,6,.86,1.2,1.53,2.24,2,3,12.73,2.63,21.6,9.57,22.5,17.5.48,4.26-1.47,7.72-2.5,9.5Z"/>
  <path class="cls-4" d="M210,94c-1.79,1.86-4.46,4.4-8,7-2.54,1.87-4.87,3.28-6.72,4.31-.51.28-.98.53-1.41.76-.75.39-1.39.7-1.87.93-11.69,5.68-24.19,11.13-33.5,15.05-4.88,2.05-8.88,3.69-11.43,4.72-1.96.79-3.07,1.23-3.07,1.23-17.37,6.95-26.13,10.87-33.54,13.4-3.66,1.26-6.99,2.18-10.86,2.95-3.49,1.76-9.6,4.44-17.6,5.65-18.42,2.78-40.12-3.28-41-11-.14-1.25.18-3.26,3-6,1.18-.98,2.51-1.99,4-3,1.75-1.19,3.44-2.18,5-3h0c5.33-3,10.67-6,16-9,8.1-4.18,14.62-7.65,19-10,9.39-5.04,14.32-7.65,22.28-11.74,5.84-3,9.89-4.92,12.97-6.07,0,0,24.3-9.1,54.75-9.19,3.17-.01,7.05-.02,12,1,3.26.67,3.51,1.08,8,2,5.08,1.04,6.33.85,8,2,1.54,1.06,3.33,3.2,4,8Z"/>
  <path class="cls-4" d="M196.18,40.82c-4.92.6-9.86,1.22-14.82,1.85-8.51,1.08-16.96,2.19-25.36,3.33-1.96.19-3.96.52-6,1-.11.03-.22.05-.33.08-.37-3.34-.11-8.18-.67-17.08-1.08-17.28-3.43-21.3,0-25,4.14-4.47,12.56-4.03,18-2,5.19,1.93,7.07,5.09,18,21,6.63,9.65,9.81,14.12,11.18,16.82Z"/>
  <path class="cls-4" d="M92.23,54.98c-12.6,2.5-23.5,5.36-31.55,8.41-4.12-.47-8.54-.64-12.68-.39-4.21.25-8,.92-11.62,1.88-4.94-7.47-5.62-19.04-10.38-32.88-4.34-12.6-8.69-17.22-6-21,2.49-3.51,8.87-3.25,15-3,3.01.12,9.37.45,16,4,7.65,4.1,11.49,10.27,14,14,11.4,16.96,22.19,23.83,27.23,28.98Z"/>
  <path class="cls-4" d="M77.62,69.82c.02.38-.12.77-.44,1.17-1.89,2.53-10.24,5.58-24.96,10.46-2.86.95-5.97,1.97-9.31,3.07-7.29,2.4-9.82,3.03-12.91,3.48-13.18,1.92-28.41-.7-29-5-.44-3.16,7.14-6.57,17-11,6.4-2.88,12.12-5.45,18.38-7.12,3.62-.96,7.41-1.63,11.62-1.88,4.14-.25,8.56-.08,12.68.39,9.09,1.03,16.76,3.54,16.94,6.43Z"/>
  <path class="cls-4" d="M170,138c-.63,5.9-5.23,9.43-6,10-3.49,2.59-7.36,3.09-24,1-18.38-2.31-25.46-4.42-29.54-7.6,7.41-2.53,16.17-6.45,33.54-13.4,0,0,1.11-.44,3.07-1.23,2.55-1.03,6.55-2.67,11.43-4.72,1.71.35,3.12.98,4.5,1.95,2.42,1.7,4.92,4.52,6.2,7.96.69,1.86,1.03,3.9.8,6.04Z"/>
  <path class="cls-4" d="M203.68,121.55c-.63,5.9-5.22,9.43-6,10-3.49,2.59-7.36,3.1-24,1-1.58-.2-3.07-.4-4.48-.59-1.28-3.44-3.78-6.26-6.2-7.96-1.38-.97-2.79-1.6-4.5-1.95,9.31-3.92,21.81-9.37,33.5-15.05.48-.23,1.12-.54,1.87-.93,1,.36,1.91.85,2.81,1.48,3.74,2.62,7.66,7.92,7,14Z"/>
  <circle class="cls-2" cx="227.5" cy="65.5" r="5.5"/>
  <circle class="cls-2" cx="204.5" cy="66.5" r="5.5"/>
  <circle class="cls-2" cx="177.5" cy="68.5" r="5.5"/>
  <circle class="cls-2" cx="150.5" cy="68.5" r="5.5"/>
  <circle class="cls-2" cx="123.5" cy="68.5" r="5.5"/>
  <path class="cls-5" d="M304,58c-.41,2.27-5.39,3.17-10,4-1.9.34-4.33.77-10,1-10.62.44-12.74.09-15-1-1.5-.72-4.77-2.29-5-5-.18-2.13,1.6-4.06,3-5,1.84-1.23,3.8-1.24,4.82-1.25,7.58-.08,12.28-.13,16.18-.75,5.47-.86,7.61-2.54,10-1,.36.23.51.43,3,4,2.91,4.18,3.09,4.5,3,5Z"/>
  <path class="cls-1" d="M287,50c6.88,10.32,8.6,13.5,6.88,10.32"/>
  <path class="cls-1" d="M278.25,50.26c1.25,11.08,1.28,14.23,1.25,11.08"/>
  <ellipse class="cls-3" cx="193.5" cy="120" rx="4.5" ry="7"/>
  <ellipse class="cls-3" cx="160" cy="135.5" rx="5" ry="7.5"/>
</svg>