<?xml version="1.0" encoding="UTF-8"?>
<svg id="Logo" xmlns="http://www.w3.org/2000/svg" xmlns:xlink="http://www.w3.org/1999/xlink" viewBox="0 0 388.5 233">
  <defs>
    <style>
      .cls-1, .cls-2, .cls-3 {
        stroke-width: 0px;
      }

      .cls-2 {
        fill: url(#Ikke-navngivet_forløb_45);
      }

      .cls-3 {
        fill: url(#Ikke-navngivet_forløb_56);
      }
    </style>
    <linearGradient id="Ikke-navngivet_forløb_56" data-name="Ikke-navngivet forløb 56" x1="114.32" y1="235.73" x2="272.68" y2="-1.73" gradientUnits="userSpaceOnUse">
      <stop offset=".12" stop-color="#ff7bac"/>
      <stop offset=".3" stop-color="#ffa4c6"/>
      <stop offset=".59" stop-color="#ffe5ef"/>
      <stop offset=".73" stop-color="#fff"/>
      <stop offset="1" stop-color="#ff7bac" stop-opacity="0"/>
    </linearGradient>
    <linearGradient id="Ikke-navngivet_forløb_45" data-name="Ikke-navngivet forløb 45" x1="123.33" y1="116.99" x2="142.19" y2="116.99" gradientUnits="userSpaceOnUse">
      <stop offset="0" stop-color="#cce0f4"/>
      <stop offset=".03" stop-color="#c2dcf2"/>
      <stop offset=".07" stop-color="#a9d2ee"/>
      <stop offset=".12" stop-color="#7fc2e7"/>
      <stop offset=".18" stop-color="#46abdd"/>
      <stop offset=".22" stop-color="#1e9cd7"/>
      <stop offset=".56" stop-color="#0075be"/>
      <stop offset=".99" stop-color="#0021b2"/>
    </linearGradient>
  </defs>
  <g>
    <ellipse class="cls-3" cx="193.5" cy="117" rx="193" ry="113.5"/>
    <path class="cls-1" d="M193.5,4c106.14,0,192.5,50.69,192.5,113s-86.36,113-192.5,113S1,179.31,1,117,87.36,4,193.5,4M193.5,3C86.63,3,0,54.04,0,117s86.63,114,193.5,114,193.5-51.04,193.5-114S300.37,3,193.5,3h0Z"/>
  </g>
  <g>
    <polygon class="cls-2" points="130.03 121.27 123.33 121.54 127.2 115.9 124.88 109.43 131.27 111.47 136.51 107.21 136.61 114.09 142.19 117.93 135.83 120.16 134.02 126.78 130.03 121.27"/>
    <path class="cls-1" d="M136.03,108.25l.07,5.59v.52s.43.29.43.29l4.56,3.14-5.18,1.81-.5.17-.14.51-1.47,5.36-3.23-4.44-.31-.43-.54.02-5.43.22,3.16-4.61.29-.42-.17-.48-1.89-5.28,5.17,1.65.51.16.42-.34,4.23-3.44M137,106.18l-5.83,4.74-7.1-2.27,2.57,7.18-4.28,6.25,7.42-.3,4.45,6.13,2.02-7.37,7.03-2.46-6.18-4.25-.1-7.65h0Z"/>
  </g>
  <path class="cls-1" d="M52.44,135.44c-4.17,4.32-7.48,10.06-7.42,16.22.05,5.46,3.59,11.6,9.13,13.11,5.19,1.42,7.96-3.66,9.49-7.73,1.85-4.91,3.04-10.32,3.43-15.53,1.54-20.29,3.21-40.64,3.72-60.99.09-3.54.23-7.14-.11-10.67-.07-.78-.14-1.6-.4-2.35-.45-1.27-1.84-2.08-3.03-1-1.44,1.32-1.6,4.36-1.86,6.13-.61,4.14-.91,8.33-1.05,12.52-.34,9.98-.03,20.51,2.84,30.15.6,2.01,1.35,3.99,2.23,5.88.93,2,2.2,4.32,4.25,5.36,5.16,2.61,8.18-5.81,9.5-9.26,3.38-8.8,5.14-18.24,6.56-27.53.07-.49.14-.97.22-1.46.06-.36.29-.77-.05-.23l-2.36.3s-.55-1.59-.41-.83c.06.34.18.6.41.86.62.7,1.93.52,2.36-.3.26-.5.24-1.16.27-1.72.06-.9.12-1.81.18-2.71.19-2.95.39-5.91.59-8.86.24-3.51.49-7.02.75-10.53.22-2.89.44-5.79.74-8.67.05-.49.11-.99.16-1.48.01-.1.03-.2.04-.29.05-.41-.05.35-.01.07.02-.16.04-.32.07-.47.03-.17.15-.44.13-.61.03.26-.54.8-.97.92-.88.24-1.63-.51-1.78-.93.13.37-.02-.4-.01-.12,0,.14.02.28.03.42.03.44.04.87.05,1.31.03,1.59.02,3.19,0,4.78-.07,6.53-.25,13.05-.44,19.58-.35,11.97-.76,23.94-1.19,35.9-.3,8.43-.61,16.86-.93,25.29-.17,4.39-.4,8.79-.46,13.19-.03,2.51-.22,5.5.89,7.83,2.5,5.26,8.34-.5,10.45-2.99,3.96-4.69,6.97-10.07,8.59-16.01.82-3.01,1.29-6.11,1.48-9.21.07-1.14-1.33-1.87-2.26-1.3-4.68,2.89-9.19,7.9-9.35,13.68-.08,2.92,1.07,5.93,1.93,8.67,1.05,3.33,1.79,7.97,5.42,9.47s7.76-.86,9.62-4.07c1.09-1.88,1.63-4.02,2.04-6.14.48-2.48.89-4.98,1.27-7.48,1.56-10.18,2.47-20.45,2.71-30.75.26-11.61-.34-23.24-1.79-34.76-.23-1.88-2.89-1.98-3,0-.9,16.41-1.33,32.85-1.27,49.28.03,8.3.13,16.6.46,24.9.11,2.76.59,5.96,3.36,7.3s5.41-.3,7.12-2.38c2.49-3.01,3.27-6.89,3.94-10.64.78-4.36,1.11-8.78.98-13.2-.05-1.72-2.41-2-2.95-.4-1.43,4.3-1.79,8.94-.81,13.38.84,3.81,2.63,8.26,5.56,10.94,8.48,7.75,13.78-11.9,14.54-17.04.32-2.19.52-4.41.5-6.63,0-1.07.12-2.46-.59-3.34-.41-.52-1.29-.53-1.82-.23-1.17.66-.81,3.07-.82,4.16-.04,3.96-.05,7.92-.05,11.88s0,8.13,0,12.2l2.95-.4c-.03-.17-.06-.34-.09-.51-.02-.14-.04-.27-.06-.41-.01-.08-.02-.16-.03-.24-.02-.16.03.21-.01-.08-.14-1.1-.24-2.2-.31-3.31-.17-2.89-.13-5.84.49-8.68.57-2.61,1.65-5.4,4.03-6.85,1.39-.85,3.14-1.48,4.78-1.56.6-.03,1.39-.04,1.88.4.65.58.53,1.73.57,2.51.31,6.33.64,12.66.96,18.99.07,1.39,2.08,2.17,2.8.76,1.49-2.95,2.45-6.1,3.52-9.22.97-2.83,2.08-5.95,4.14-8.2,2.93-3.2,9.04-5.63,12.27-1.57l1.46-2.51c-6.99-2.34-15.15-.27-19.62,5.68-2.67,3.56-4.05,8.22-3.21,12.64.63,3.33,2.85,6.84,6.19,7.92,3.92,1.28,7.83-1.35,10.49-3.99,3.06-3.05,4.9-7.04,5.8-11.22.61-2.82.76-6.16,1.16-8.7.06-.41,0-.13,0-.13-.08-.06.29-.24,0-.04-.58.41-.99.85-1.83.06-.14-.14-.19-.43-.17-.22s.12.46.16.67c.27,1.37.4,2.77.6,4.14.78,5.42,2.08,10.74,4.35,15.75s5.75,9.76,9.9,13.6c1.42,1.31,3.54-.81,2.12-2.12-7.3-6.74-11.33-15.57-13.04-25.26-.3-1.67-.52-3.36-.75-5.04-.12-.91-.2-1.88-.52-2.75-.41-1.09-1.55-1.79-2.66-1.12-.82.5-1.04,1.48-1.18,2.35-.45,2.98-.52,5.97-1.25,8.91-.92,3.72-2.66,7.05-5.51,9.66-2.68,2.45-6.63,4.2-9.26.71-2.08-2.76-2.26-6.37-1.26-9.6,1.48-4.81,5.36-8.5,10.32-9.51,2.7-.55,5.75-.38,8.37.5,1.57.52,2.3-1.45,1.46-2.51-3.91-4.91-11.2-3.06-15.36.46-5.58,4.73-6.16,12.93-9.28,19.13l2.8.76c-.32-6.41-.67-12.82-.97-19.24-.1-2.12-.5-4.23-2.64-5.19-1.99-.89-4.41-.44-6.39.26-3.54,1.25-5.92,3.62-7.28,7.11-1.27,3.25-1.55,6.9-1.49,10.36.04,2.42.25,4.86.68,7.24.31,1.69,2.95,1.26,2.95-.4,0-7.04-.01-14.08.03-21.11,0-1.47.02-2.94.04-4.41,0-.34.02-.67.03-1.01,0-.09.03-.2.01-.28.03.15-.24.89-.72,1.16l-1.82-.23c-.38-.48-.4-1.1-.35-.4.03.47.05.93.06,1.4.02,1.54-.06,3.09-.22,4.62-.47,4.51-1.75,8.88-3.72,12.95-1.04,2.16-3.13,6.74-5.98,4.2-2.37-2.12-3.75-5.69-4.56-8.69-1.13-4.21-.77-8.6.59-12.71l-2.95-.4c.11,3.67-.08,7.36-.64,10.99-.47,3.04-.93,6.51-2.43,9.23-.83,1.51-3.14,4.74-5.13,2.99-.88-.77-1.06-2.13-1.14-3.23-.15-1.84-.14-3.7-.19-5.55-.41-14.77-.44-29.55-.07-44.32.21-8.46.55-16.92,1.02-25.38h-3c2.31,18.49,2.45,37.24.37,55.76-.53,4.68-1.2,9.33-2.01,13.97-.61,3.45-1.05,8.26-4.41,10.23-1.27.74-3,1.09-4.27.15-1.15-.85-1.55-2.49-1.97-3.76-1.03-3.16-2.25-6.4-2.79-9.7-.86-5.27,3.58-10.11,7.74-12.68l-2.26-1.3c-.44,6.95-2.54,13.73-6.48,19.52-1.15,1.69-2.41,3.31-3.8,4.81-.83.9-1.72,1.8-2.76,2.46-.36.22-.71.41-1.11.52-.27.08-.25.09-.43-.02,0,0,.03.09-.13-.14.15.21-.09-.16-.12-.23-.06-.13-.25-.74-.32-1.09-.25-1.21-.26-2.48-.27-3.71-.05-4.17.21-8.34.37-12.51.32-8.51.64-17.03.95-25.54.44-12.25.87-24.51,1.23-36.76.2-6.74.39-13.47.47-20.21.02-1.69.04-3.37.01-5.06-.01-.86.03-1.82-.16-2.67-.39-1.67-2.55-1.71-3.06-.1-.2.64-.24,1.37-.32,2.03-.31,2.52-.5,5.06-.71,7.58-.28,3.44-.52,6.89-.76,10.33-.22,3.22-.44,6.44-.65,9.66-.12,1.8-.28,3.61-.36,5.41-.03.62.04-.19.18-.47l2.36-.3s.56,1.64.41.84c-.06-.34-.18-.61-.42-.87-.66-.75-1.87-.47-2.36.3-.33.53-.32,1.37-.41,1.96-.21,1.41-.44,2.81-.67,4.22-.74,4.39-1.61,8.75-2.68,13.07-1.19,4.78-2.57,9.62-4.72,14.07-.54,1.12-1.96,4.55-3.64,4.09s-2.8-3.41-3.42-4.81c-3.57-8.09-4.29-17.36-4.47-26.1-.09-4.45.02-8.91.35-13.35.23-3.1.51-6.24,1.2-9.27.1-.43.21-.86.34-1.29.03-.09.23-.6.12-.36-.13.29.11-.27.15-.26,0,0-.47.41-.64.45-.1.03-.69,0-.66,0-.06-.01-.7-.41-.52-.28-.21-.16-.3-.36-.12-.12-.21-.3-.09-.35-.04-.05.05.27.12.55.17.83.07.39-.04-.39,0-.05,0,.09.02.18.03.27.02.24.05.47.07.71.05.59.07,1.17.1,1.76.06,1.66.06,3.32.04,4.98-.16,15.89-1.42,31.8-2.54,47.65-.23,3.23-.46,6.46-.7,9.69s-.35,6.58-.81,9.83c-.64,4.45-1.73,9.29-3.6,13.41-.68,1.49-1.65,3.59-3.27,4.27-2.24.94-4.84-1.4-6.17-2.92-3.46-3.96-3.28-9.41-1.27-14.01,1.2-2.76,2.99-5.2,5.07-7.36,1.34-1.39-.78-3.51-2.12-2.12h0Z"/>
  <path class="cls-1" d="M247.37,96.07c-1.28-5.42-6.34-9-11.64-9.88-5.73-.95-11.7,1.14-16.39,4.4-3.63,2.53-6.72,5.79-8.74,9.74-2.57,5.01-3.86,10.75-5.16,16.19-1.46,6.12-2.4,12.67-2.14,18.97s1.62,13.23,4.98,18.58c2.5,3.98,6.28,7.67,10.59,9.62,5.74,2.59,12.44,2.1,17.85-1.12,3.18-1.89,5.66-4.64,7.46-7.85s3.42-7.1,3.83-10.9c.37-3.42-.49-6.99-3.22-9.26-2.4-2-5.71-2.77-8.52-1.16-1.48.85-.49,3.17,1.16,2.74,2.19-.57,5.86-1.52,7.45.72.81,1.14.8,2.75.86,4.09.05,1.05.08,2.09.11,3.14.17,6.07.42,12.12,1.07,18.17.21,1.9,3.21,1.92,3,0-.72-6.68-.88-13.35-1.13-20.06-.11-3.05-.15-6.57-2.92-8.5s-6.3-1.22-9.24-.46l1.16,2.74c1.97-1.13,4.32-.1,5.72,1.48,1.95,2.19,1.82,5.42,1.17,8.1-1.36,5.59-4.4,11.4-9.47,14.42-4.66,2.77-10.53,3.25-15.44.82-3.65-1.81-6.89-4.97-9.01-8.43-2.85-4.64-4.08-10.62-4.41-16-.35-5.65.38-11.5,1.53-17.02,1.03-4.94,2.31-9.99,4.09-14.72,1.34-3.55,3.38-6.68,6.17-9.26,3.86-3.56,9.18-6.39,14.53-6.44,5.04-.05,10.58,2.71,11.81,7.93.44,1.88,3.34,1.08,2.89-.8h0Z"/>
  <path class="cls-1" d="M253.32,137.27l.25,25.98h3c-.93-7.72-2.01-18.28,5.82-23,1.43-.86,3.34-1.55,5.03-1.2,1.37.29,1.98,1.5,2.4,2.72.97,2.82,1.35,5.86,3.98,7.68.7.49,1.62.09,2.05-.54,4.08-5.96,12.68-8.27,19.2-5.15,1.73.83,3.26-1.75,1.51-2.59-8.07-3.87-18.24-1.16-23.3,6.22l2.05-.54c-1.9-1.32-2.02-4.43-2.79-6.42-1.12-2.91-3.39-4.73-6.64-4.43-6.69.62-11.26,6.79-12.48,12.99-.93,4.72-.41,9.51.16,14.24.22,1.86,3.02,1.98,3,0l-.25-25.98c-.02-1.93-3.02-1.93-3,0h0Z"/>
  <path class="cls-1" d="M294.72,141.75c-6.95-1.97-17.56-1.26-21.08,6.2-1.97,4.18-1.41,9.93,2,13.24,4.44,4.32,10.66,1.84,14.58-1.84,4.72-4.43,7.19-11.07,6.61-17.5-.15-1.64-2.42-2.09-2.95-.4-1.01,3.25-1.73,6.62-1.91,10.03-.14,2.68-.01,5.39,1.19,7.83.95,1.93,2.69,4.02,5.06,3.84,2.13-.16,3.69-2.12,4.57-3.89s-1.73-3.24-2.59-1.51c-.41.81-1.27,2.5-2.35,2.42-1.26-.1-2.21-2.42-2.52-3.42-.64-2.05-.46-4.48-.26-6.58.26-2.69.9-5.34,1.7-7.91l-2.95-.4c.43,4.77-.91,9.59-3.88,13.37-2.48,3.16-7.68,7.33-11.71,4.26-2.89-2.2-3.43-7-1.94-10.14,1.33-2.8,4.16-4.31,7.06-5.01,3.45-.83,7.17-.66,10.57.3,1.86.53,2.65-2.37.8-2.89h0Z"/>
  <path class="cls-1" d="M300.84,161.84c7.7-9.24,13.17-20.19,16.3-31.78,1.56-5.8,2.54-11.78,2.92-17.78.19-3.06.29-6.17.08-9.23-.18-2.6-1.18-5.31-4.03-5.9-2.41-.5-4.89.75-6.26,2.72-1.67,2.41-1.93,5.53-1.94,8.37-.01,6.3.69,12.61,1.66,18.83,2.02,12.91,5.52,25.52,8.3,38.27,3.06,14,5.2,28.33,3.33,42.66h3c2.13-16.39.92-32.96,2.33-49.4.65-7.53,1.86-15.05,4.2-22.25,1.16-3.56,2.6-7.01,4.4-10.29s3.72-6.13,5.5-9.24,3.43-6.48,4.3-10.03c.72-2.94.93-6.42-.67-9.12s-4.91-3.79-7.89-2.79c-3.19,1.07-5.16,3.86-6.39,6.86-1.36,3.33-1.95,6.99-2.36,10.54s-.5,7.05-.35,10.58c.32,7.23,1.64,14.38,3.26,21.42,3.31,14.37,8.06,28.6,8.86,43.42.1,1.85.13,3.7.1,5.55h3c.07-7.09.13-14.18.2-21.28.06-6.46.59-13.12-.29-19.54-.79-5.75-3.48-10.67-8.74-13.43s-12-3.82-18.07-4.29c-7.7-.61-15.43-.08-23.12.46-1.91.13-1.94,3.09,0,3,18.17-.87,36.34-1.73,54.52-2.6,1.92-.09,1.93-3.09,0-3-18.17.87-36.34,1.73-54.52,2.6v3c12.34-.86,25.8-2.04,37.62,2.5,2.35.9,4.59,2.23,6.23,4.17s2.55,4.61,3,7.19c.5,2.85.49,5.78.47,8.66-.02,3.27-.06,6.54-.09,9.81-.07,7.59-.14,15.17-.21,22.76-.02,1.93,2.97,1.93,3,0,.22-14.26-3.66-28.12-7.14-41.82-3.35-13.24-6.64-27.1-4.51-40.81.52-3.34,1.16-6.96,2.96-9.87,1.32-2.14,4.37-4.46,6.89-2.65s1.9,5.81,1.23,8.32c-.87,3.29-2.4,6.33-4.1,9.26s-3.71,5.97-5.39,9.06-2.99,6.16-4.12,9.39c-2.36,6.76-3.66,13.84-4.44,20.95-1.95,17.59-.39,35.37-2.68,52.93-.11.81.76,1.49,1.5,1.5.9,0,1.4-.7,1.5-1.5,3.14-24.07-4.83-47.54-9.71-70.8-1.25-5.95-2.32-11.94-2.95-17.99-.31-2.94-.51-5.88-.59-8.83-.07-2.73-.27-5.87,1.09-8.35.77-1.39,3.26-3.06,4.52-1.23.73,1.07.61,2.66.64,3.89.04,1.48.04,2.95,0,4.43-.15,5.69-.87,11.34-2.14,16.89-2.81,12.27-8.26,24.01-16.34,33.71-1.23,1.47.88,3.61,2.12,2.12h0Z"/>
</svg>