<?xml version="1.0" encoding="UTF-8"?>
<svg id="Polaroid_1" data-name="Polaroid 1" xmlns="http://www.w3.org/2000/svg" viewBox="0 0 287 386">
  <defs>
    <style>
      .cls-1 {
        fill: #999;
      }

      .cls-1, .cls-2, .cls-3, .cls-4 {
        stroke-width: 0px;
      }

      .cls-5 {
        fill: none;
        stroke: #000;
        stroke-miterlimit: 10;
      }

      .cls-2 {
        fill: #a67c52;
      }

      .cls-4 {
        fill: #fff;
      }
    </style>
  </defs>
  <g>
    <rect class="cls-4" x="5.5" y="41.5" width="275" height="340"/>
    <path class="cls-3" d="M280,42v339H6V42h274M281,41H5v341h276V41h0Z"/>
  </g>
  <g>
    <rect class="cls-4" x="17.5" y="54.5" width="252" height="252"/>
    <path class="cls-3" d="M269,55v251H18V55h251M270,54H17v253h253V54h0Z"/>
  </g>
  <g>
    <rect class="cls-2" x="133.5" y="6.5" width="20" height="60"/>
    <path class="cls-3" d="M153,7v59h-19V7h19M154,6h-21v61h21V6h0Z"/>
  </g>
  <g>
    <path class="cls-1" d="M140.13,34.53c-4.62,0-5.79-.48-6.18-1.26-.2-.4-.29-1.05-.02-1.52.25-.42.79-.6,1.85-.6.62,0,1.38.06,2.26.13,1.21.09,2.72.21,4.46.21,2.25,0,4.09-.18,5.58-.33,1.04-.1,1.94-.19,2.68-.19,1.21,0,1.89.24,2.35.83.13.16.51.66.41,1.07-.33,1.34-5.53,1.48-11.03,1.62-.87.02-1.65.03-2.36.03Z"/>
    <path class="cls-3" d="M150.76,31.48c1.21,0,1.66.25,1.96.64.34.44.32.62.32.65-.24.97-6.45,1.13-10.55,1.24-.86.02-1.64.03-2.35.03-3.62,0-5.39-.3-5.74-.99-.14-.29-.2-.75-.03-1.04.06-.11.21-.35,1.42-.35.6,0,1.35.06,2.22.13,1.22.1,2.74.21,4.5.22h.05c2.22,0,4.08-.18,5.57-.33,1.03-.1,1.91-.19,2.63-.19M150.76,30.48c-1.85,0-4.5.52-8.2.52-.02,0-.03,0-.05,0-2.97,0-5.19-.34-6.72-.34-1.14,0-1.89.19-2.28.84-.36.61-.29,1.43,0,2,.53,1.04,1.92,1.53,6.63,1.53.71,0,1.5-.01,2.37-.03,6.77-.18,11.09-.32,11.5-2,.16-.65-.33-1.29-.5-1.5-.61-.79-1.5-1.02-2.74-1.02h0Z"/>
  </g>
  <path class="cls-5" d="M59.2,83.28c.27,7.48,6.31,13.26,10.29,19.6,3.05,4.86,5,10.42,5.66,16.12.56-4.72,1.77-9.33,2.97-13.92,1.74-6.61,3.47-13.21,5.21-19.82"/>
  <path class="cls-5" d="M90.93,88.65c.76-.25,1.59.28,1.96.99s.37,1.54.37,2.34c0,10.59.01,21.17.02,31.76"/>
  <path class="cls-5" d="M118.77,93.51c-4.11-.69-8.44-.05-12.17,1.8-.78.38-1.55.84-2.04,1.56-.57.85-.66,1.92-.71,2.94-.42,7.74.02,16.38,5.52,21.84.93.92,2.05,1.75,3.35,1.89,1.79.19,3.45-.97,4.63-2.33s2.06-2.97,3.38-4.19"/>
  <path class="cls-5" d="M128.84,94.83c.05,6.31.11,12.63.16,18.94.03,3.18.11,6.57,1.9,9.2,1.02,1.51,2.62,2.68,4.42,2.94s3.78-.48,4.77-2.01c.87-1.35.9-3.06.9-4.67,0-7.22-.02-14.43-.02-21.65-.13,9.54-.26,19.09.51,28.6"/>
  <path class="cls-5" d="M179.95,127.11c-6.1-.68-4.82-3.03-4.84-8.77-.02-4.42.62-9.43-.07-13.79,1.72,10.99,5.43,21.56,9.12,32.05"/>
  <path class="cls-5" d="M202.55,113.66c-2.18-1.73-5.44-1.08-7.83.34-1.69,1-3.33,2.77-2.87,4.68.6,2.51,3.91,2.85,6.44,3.35,3.06.6,5.91,2.22,8,4.54,1.62,1.8,2.81,4.11,2.85,6.53s-1.21,4.94-3.4,5.99c-1.17.56-2.49.68-3.78.73-3.71.14-7.44-.24-11.04-1.13"/>
  <path class="cls-5" d="M192.72,236.27c-7.33,4.98-14.66,9.95-22,14.93-24.9,16.9-49.9,33.88-72.13,54.17"/>
  <path class="cls-5" d="M205.58,225.84c-.73,2.01,1.19,4.13,3.26,4.68s4.26.12,6.4.24c5.73.33,10.43,4.54,15.87,6.38,3.75,1.27,7.82,1.4,11.55,2.73,6.84,2.44,12.86,8.91,19.98,7.53-2.41,2.99-3.42,8.04-6.16,10.72-16.2,15.87-27.18,37.51-46.76,48.95"/>
  <path class="cls-5" d="M228.49,245.51c-5.86-.58-8.21-4.79-8.87-10.16-.33-2.66-.16-5.51.06-8.18.43-5.13.26-3.34,4.18-5.35,1.42-.73,2.48-1.98,3.5-3.21,2.36-2.83,4.85-6.04,4.67-9.71-.17-3.41-2.98-6.51-6.37-6.99s-6.95,1.69-8.07,4.92c-2.73-.99-6.12.83-6.81,3.65-.82,3.4,1.85,6.96.89,10.32-.43,1.5-1.53,3.14-.69,4.45.64,1,2.04,1.1,3.23,1.09,3.19-.02,6.38-.04,9.56-.05"/>
  <path class="cls-5" d="M119.75,280.74l-.25-1.21c-3.05-.97-6.64.68-9.46-.84-2.24-1.21-3.1-3.99-3.29-6.52s.08-5.16-.77-7.55c-.99-2.78-3.35-4.86-4.62-7.53-1.47-3.09-1.33-6.82.08-9.94s4-5.62,7.02-7.23c.52-5.25,2.89-11.57,3.41-16.82.09-.92.23-1.93.92-2.53.65-.56,1.61-.62,2.29-1.14,1.02-.79,1.05-2.29.97-3.57-.37-6.18-.86-13.06,3.1-17.82,1.31-1.58,3.78-2.79,5.33-1.43.56.5.85,1.23,1.11,1.93,2.26,5.98,4.52,11.96,6.78,17.93,1.34-.1,2.18,1.38,2.63,2.64,2.65,7.27,4.16,14.95,4.45,22.68.29,7.79-.25,16.68,5.32,22.14"/>
  <path class="cls-5" d="M187.15,234.47c2.52-1.57,5.04-3.14,7.56-4.71-.77,1.88.64,4.09,2.51,4.88s4,.54,6,.19c1-.18,2.08-.43,2.7-1.24.61-.8.57-1.9.51-2.9-.32-5.09-.64-10.18-.96-15.26-.26-4.11-.67-8.59-3.52-11.56-1.07-1.11-2.54-2.21-2.43-3.74.05-.61.35-1.16.61-1.71,2.25-4.78,1.14-10.93-2.64-14.62-.6-.59-1.29-1.13-2.11-1.31-2.35-.52-4.27,2.15-4.46,4.55s.58,4.84.13,7.21c-.16.83-.49,1.68-1.15,2.21-1.92,1.55-4.7-.45-7.17-.34-3.62.17-5.25,4.53-5.99,8.08-1.19,5.75-5.26,13.48-4.58,18.73.44,3.41,2.9,7.35,4.71,10.19.68,1.08,5.79,6.27,5.67,7.07-.52,3.57-5.42,5.59-8.3,3.42s-2.29-7.44.99-8.92,7.63,1.57,7.35,5.16"/>
  <path class="cls-5" d="M62.94,307.71c.09-12.84-.1-25.69-.58-38.52-3.06-.78-4.21-6.75-2.83-9.59s4.04-4.81,5.91-7.35c1.75-2.37,3.05-5.46,5.84-6.41,1.05-.36,2.18-.35,3.27-.57,3.51-.7,6.35-3.96,6.55-7.53,2.41,1.48,5.63-.23,7.28-2.53s2.45-5.15,4.25-7.34c2.81-3.43,7.71-4.8,10.06-8.56-4.92-1.88-9.68,5.93-14.61,4.09,3-3.93,5.01-8.61,5.8-13.49-3.6.94-6.05,4.16-8.44,7.01-7.2,8.57-16.39,15.46-26.62,19.99,1.57-7.19-.65-15.14-3.28-21.82-2.87-7.3-4.02-10.33-2.15-18.1,2.9.5,4.18,3.62,4.29,6.39s-.53,5.8.38,8.5c.39-2.56,2.2-4.96,4.7-5.65s5.5.7,6.28,3.17c.82,2.62-.84,5.31-2.42,7.56-2.26,3.23-5.06,6.77-9,7.01"/>
  <path class="cls-5" d="M146.72,130c0-8.67,0-17.34,0-26.01,2.27-1.13,5.27-.44,6.97,1.43s2.41,4.45,2.7,6.97c.3,2.59-.17,5.82-2.59,6.79-2.1.84-4.69-.5-6.66.61.47,5.3,5.99,8.67,7.92,13.62.73,1.87,1.28,4.31,3.24,4.76"/>
  <path class="cls-5" d="M163.88,140.34c3.31-1.49,5.77-4.47,7.36-7.74s2.39-6.85,3.18-10.4"/>
  <path class="cls-5" d="M151.81,257.29c-1.47,1.47-4.2.7-5.36-1.03s-1.15-3.97-.91-6.03.66-4.18.18-6.2c-.37-1.56-1.25-2.93-1.88-4.4-1.39-3.24-1.56-6.86-1.71-10.39-.31-7.33-.55-15.03,2.74-21.59,2.59-5.16,7.31-9.5,7.86-15.24.22-2.29-.27-4.61-.07-6.91s1.37-4.78,3.58-5.43c2.34-.68,4.83,1.08,5.83,3.3s.89,4.76.75,7.19c-.19,3.53-.38,7.06-.58,10.59-.17,3.16-.21,6.69,1.95,9,1.36,1.46,3.35,2.12,5.06,3.15s3.31,2.82,2.96,4.79"/>
  <path class="cls-5" d="M53.96,199.18c1.13-2.22.63-5.15-1.16-6.88-.66-.64-1.47-1.12-2.08-1.81-1.08-1.22-1.38-2.94-1.48-4.57-.23-3.79.43-7.57.45-11.37s-.72-7.82-3.27-10.63c-2.6-2.87-3.21-3.42-2.59-7.72,1.98-.06,2.16,3.13,3.83,4.18,2.17,1.37,4.57-1.81,4.46-4.38s-1.18-5.37.17-7.55c.64-1.03,1.71-1.71,2.54-2.6,1.98-2.14,2.36-5.28,2.54-8.19.33-5.1.4-10.21.22-15.32-.07-1.81-.17-3.66-.88-5.33-.8-1.87-2.29-3.35-3.64-4.87-4.84-5.46-9.13-12.65-16.34-13.8-6.47-1.03-12.73,3.66-15.8,9.45-3.2,6.03-3.74,13.42-1.45,19.86,1.28,3.58,3.37,6.86,4.38,10.53,1.02,3.74.46,7.64-2.09,10.62-1.69,1.97-7.57,4.07-4.23,7.76"/>
  <path class="cls-5" d="M209.81,247.42c0,.7.02,1.43.4,2.02,1.03,1.61,3.57.78,5.34,1.48,2.33.92,3.52,4.56,5.98,4.06.58-.12,1.08-.48,1.55-.85,5.01-4.06,10.89-18.75,1.24-21.06-2.5-.6-8.31,1.26-10.58,2.2-5.48,2.28-3.96,6.43-3.93,12.15Z"/>
  <path class="cls-5" d="M255.14,260.49c-.79,15.08-.93,30.2-.42,45.29"/>
</svg>