<?xml version="1.0" encoding="UTF-8"?>
<svg id="Polaroid_3" data-name="Polaroid 3" xmlns="http://www.w3.org/2000/svg" viewBox="0 0 284 381">
  <defs>
    <style>
      .cls-1 {
        fill: #999;
      }

      .cls-1, .cls-2, .cls-3, .cls-4 {
        stroke-width: 0px;
      }

      .cls-5 {
        fill: none;
        stroke: #000;
        stroke-miterlimit: 10;
      }

      .cls-2 {
        fill: #a67c52;
      }

      .cls-4 {
        fill: #fff;
      }
    </style>
  </defs>
  <g>
    <rect class="cls-4" x="4.63" y="37.55" width="275" height="340"/>
    <path class="cls-3" d="M279.13,38.05v339H5.13V38.05h274M280.13,37.05H4.13v341h276V37.05h0Z"/>
  </g>
  <g>
    <rect class="cls-4" x="16.63" y="50.55" width="252" height="252"/>
    <path class="cls-3" d="M268.13,51.05v251H17.13V51.05h251M269.13,50.05H16.13v253h253V50.05h0Z"/>
  </g>
  <g>
    <rect class="cls-2" x="132.63" y="2.55" width="20" height="60"/>
    <path class="cls-3" d="M152.13,3.05v59h-19V3.05h19M153.13,2.05h-21v61h21V2.05h0Z"/>
  </g>
  <g>
    <path class="cls-1" d="M139.26,30.58c-4.61,0-5.79-.48-6.18-1.26-.2-.4-.29-1.05-.02-1.52.25-.42.79-.6,1.85-.6.62,0,1.38.06,2.26.13,1.21.09,2.72.21,4.46.21,2.25,0,4.09-.18,5.58-.33,1.04-.1,1.94-.19,2.68-.19,1.21,0,1.89.24,2.35.83.13.16.51.65.41,1.07-.33,1.34-5.53,1.48-11.03,1.62-.87.02-1.65.03-2.36.03Z"/>
    <path class="cls-3" d="M149.89,27.53c1.21,0,1.66.25,1.96.64.34.44.32.62.32.65-.24.97-6.45,1.13-10.55,1.24-.86.02-1.64.03-2.35.03-3.62,0-5.39-.3-5.74-.99-.14-.29-.2-.75-.03-1.04.06-.11.21-.35,1.42-.35.6,0,1.35.06,2.22.13,1.22.1,2.74.21,4.5.22h.05c2.22,0,4.08-.18,5.57-.33,1.03-.1,1.91-.19,2.63-.19M149.89,26.53c-1.85,0-4.5.52-8.2.52-.02,0-.03,0-.05,0-2.97,0-5.19-.34-6.72-.34-1.14,0-1.89.19-2.28.84-.36.61-.29,1.43,0,2,.53,1.04,1.92,1.53,6.63,1.53.71,0,1.5-.01,2.37-.03,6.77-.18,11.09-.32,11.5-2,.16-.65-.33-1.29-.5-1.5-.61-.79-1.5-1.02-2.74-1.02h0Z"/>
  </g>
  <path class="cls-5" d="M43.24,300.95c-5.48-4.24-6.22-12.54-3.79-19.03s7.28-11.71,11.64-17.1c17.25-21.33,27.95-47.89,30.29-75.23.53-6.15.66-12.43,2.61-18.29,2.89-8.65,9.86-15.85,18.42-18.99"/>
  <path class="cls-5" d="M103.78,145.87c.08-16.56.44-33.12,1.07-49.67.08-1.99.28-4.24,1.84-5.49,1.23-.99,2.94-1.04,4.51-1.04,10.44-.03,20.88-.06,31.33-.08,1.19,0,2.45.01,3.45.65,2.36,1.49,1.76,4.98,2.03,7.76.76,7.98,10.01,11.93,14.45,18.6,2.61,3.91,3.48,8.68,4.52,13.26,3.32,14.54,9.01,28.54,16.77,41.28,1.56,2.56,3.27,5.32,3.04,8.31-.23,2.91-2.24,5.32-4.15,7.51-5.24,6.01-10.49,12.03-15.73,18.04-2.61,3-7.43,6.06-9.97,3-.93-1.12-1.05-2.68-1.14-4.13-.92-15.57-1.81-31.47,2.31-46.52,1.07-3.89,2.47-7.91,1.6-11.85s-5.19-7.41-8.84-5.71c-6.19,6.13-9.54,15.02-8.94,23.71.24,3.55,1.11,7.16.25,10.61s-4.33,6.64-7.71,5.55c-2.72-9.32,2.35-18.88,5.63-28.01,3.68-10.26,5.19-21.29,4.4-32.16"/>
  <path class="cls-5" d="M78.92,246.04c7.5-12.06,10.57-26.82,8.49-40.87-.54-3.66-1.19-8.02,1.54-10.51,1.83-1.67,4.58-1.83,6.68-3.14,6.01-3.77,3.29-13.61,7.51-19.32,3.13-4.23,8.57-4.67,12.44-7.77,4.39-3.52,3.51-6.99,6.24-11.41,5.57-9,15.76-11.4,19.83-22.78,1.15-3.21,1.51-6.64,1.68-10.05.21-4.29-.08-9.12-3.26-12.01-3.97-3.62-12.88-3.17-17.99-4.11-6.44-1.19-12.93-1.78-13.14,7.17-.19,7.93-.19,16.08,2.69,23.47,1.54,3.95,3.99,7.69,7.57,9.95,1.01.64,2.12,1.14,3.28,1.48"/>
  <path class="cls-5" d="M133.6,188.87c-1.1,29.05-2.2,58.1-3.29,87.15-.09,2.32-.22,4.79-1.56,6.68s-4.35,2.79-6.01,1.16"/>
  <path class="cls-5" d="M160.68,216.01c-.85,12.95-1.64,26.38,3.07,38.47,2.89,7.42,7.8,14.19,8.89,22.08.75,5.46-.36,11.3,1.95,16.3"/>
  <path class="cls-5" d="M189.37,185.83c3.44,7.75,3.23,16.56,3.09,25.03-.17,10.84-.12,21.68.16,32.52.15,6.04.39,12.15,2.04,17.96,2.79,9.79,9.57,19.56,6.41,29.24.08-1.28.15-2.56.23-3.84"/>
  <path class="cls-5" d="M212.24,95.93l-.85-8.51c-.21-2.08-.37-4.35.8-6.08,1.64-2.43,5.46-2.62,7.8-.86s3.31,4.9,3.17,7.82-1.21,5.71-2.27,8.44c3.12-1.04,5.83,2.76,5.97,6.05.15,3.65-1.71,7.63-5.17,8.8s-7.93-1.97-7.12-5.53c-.51,3.3-1.84,6.47-3.85,9.15-1.27,1.7-2.88,3.24-4.89,3.89-2.34.76-5.01.18-6.99-1.28-2.93-2.15-4.31-6.34-2.91-9.69s5.65-5.32,9-3.92c-2.27.35-4.69-.57-6.16-2.32-3.05-3.64-.58-10.24,4.1-11.06s9.24,4.39,7.89,8.95"/>
  <path class="cls-5" d="M220.61,155.71c-2.86-2.93-7.05-4.51-11.13-4.21,1,4.88,4.74,9.09,9.46,10.67-1.69-1.24-4.08-1.44-5.96-.5-1.77,1.52-1.3,4.6.43,6.16s4.24,1.91,6.57,1.85,4.67-.46,6.98-.11c-2.67,1.36-5.02,3.33-6.82,5.73-.62.82-1.2,1.86-.86,2.83.43,1.23,2,1.54,3.3,1.65,3.28.28,7.34.15,8.87-2.76,1.79-3.41-1.24-8.56,1.71-11.04,2.03,2.37,5.31,4.94,7.89,3.19,1.62-1.1,1.88-3.33,2-5.29.16-2.76.29-5.69-1.05-8.11s-4.73-3.92-6.97-2.3c1.42-3.66-.84-8.29-4.6-9.42s-8.2,1.49-9.03,5.32c-.54,2.5.99,5.7,3.55,5.62-1.02,1.06-1.5,6.71-1.22,8.16,1.3.93,3.33.56,4.23-.76s-6.23-5.54-7.35-6.68Z"/>
  <path class="cls-5" d="M236.65,226.76c3.4,1.09,5.64,4.98,4.87,8.46s-4.42,6.08-7.97,5.65c2.12-1.48,5.44.07,6.1,2.57s-1,5.24-3.35,6.3-5.18.67-7.49-.5-4.18-3.03-5.9-4.97c.11,2.04.54,4.11.08,6.11-1.07,4.56-7.51,6.75-11.13,3.79s-2.77-9.71,1.48-11.66c-3.21,1.4-7.61-.86-7.84-4.35-.75-11.47,11.57,1.61,12.77,1.89-15.14-13.56,12.79-30.06,9.59-9.61,1.8-2.92,5.37-4.77,8.79-3.67Z"/>
  <path class="cls-5" d="M51.03,179.34c-1.41-2.62-1.64-6.11.25-8.4s6.18-2.35,7.52.31c1.27,2.53-.6,5.48-2.55,7.55,2.83-.15,5.67,1.55,6.87,4.11s.7,5.83-1.22,7.91c-2.24-.02-4.48-.77-6.27-2.11,0,3.31.53,6.62,1.59,9.76-2.4.84-5.28.07-6.93-1.86s-1.98-4.89-.78-7.14c-.45,3.26-3.6,6.18-6.84,5.58s-4.91-5.47-2.31-7.48c.58-.85,1.87-1.12,2.74-.57-.97-1.84-2.76-3.1-4.01-4.75s-1.86-4.23-.37-5.69c.57-.56,1.36-.85,2.14-.98,3.33-.57,6.91,1.74,7.76,5.01"/>
  <path class="cls-5" d="M51.54,149.88c-1.89-1.68-3.55-3.79-3.93-6.29s.93-5.36,3.35-6.07,5.36,1.72,4.59,4.12c-.89-2.41-.66-5.32.98-7.3s4.79-2.69,6.92-1.26,2.5,5.02.47,6.59c2.68-.4,6.05-.49,7.38,1.87,1.04,1.85.05,4.33-1.65,5.61s-3.9,1.65-6.01,1.92c2.98-.33,5.51,3.21,4.52,6.05s-4.76,4.13-7.46,2.82c-.23-1.69-.45-3.38-.68-5.06-.79,3.55-3.96,6.45-7.57,6.9-.98-3.23-.7-6.83.76-9.87"/>
  <path class="cls-5" d="M61.83,94.36c-2.39-3.66-4.83-8.4-2.55-12.12,1.56-2.54,5.24-3.49,7.83-2.02s3.66,5.12,2.27,7.76c2.18-1.1,4.88-1.3,7.04-.16s3.57,3.72,2.99,6.09-3.33,4.07-5.61,3.22c2.23,1.24,4.02,3.26,4.99,5.62.49,1.19.77,2.52.44,3.76-.57,2.12-2.84,3.43-5.03,3.59s-4.34-.58-6.41-1.31c.87,4.12-4.26,8.09-8.04,6.22s-3.71-8.36.1-10.16c-2.43.09-4.98.09-7.15-1.03s-3.76-3.71-2.96-6c.7-1.98,2.94-3.08,5.04-3.09s4.1.82,6.04,1.64"/>
  <path class="cls-5" d="M115.96,52.72c2.33.19,3.53,3.29,2.52,5.4s-3.43,3.18-5.75,3.46c1.44,3.47-.97,8.14-4.71,8.47s-6.93-4.59-4.72-7.64c-1.07,1.98-2.21,4.04-4.07,5.3s-4.68,1.44-6.18-.24c-1.94-2.17-.43-5.84,2.04-7.38s5.51-1.74,8.31-2.56c-1.74.86-6.8.58-8.25-.72s-2.02-3.49-1.36-5.32"/>
  <path class="cls-5" d="M83.25,246.59c-5.81.94-10.92,5.3-12.77,10.89-1.02,3.08-1.09,6.39-1.84,9.55-2.23,9.33-10.01,16.13-17.37,22.28"/>
  <path class="cls-5" d="M85.13,249.79c1.5,4.62,1.12,9.62.5,14.44-1.41,10.91-3.99,21.67-7.68,32.04"/>
  <path class="cls-5" d="M16.8,115.99c-.2-3.97,5.23-6.81,8.47-4.51s2.59,8.15-1.02,9.83c2.01,1.38,3.55,3.58,3.71,6.02s-1.3,5.01-3.62,5.74-5.23-.84-5.52-3.26"/>
  <path class="cls-5" d="M168.62,56.91c-2.08,1.33-3.88,3.15-4.93,5.38-.82,1.73-1.15,3.79-.41,5.55s2.78,3.03,4.61,2.47,2.74-3.24,1.35-4.55c-2.73.65-3.88,4.45-2.33,6.78s5,2.92,7.52,1.69,4.11-3.91,4.59-6.68-.02-5.61-.8-8.3c-1.26,1.46-.47,3.96,1.19,4.96s3.78.81,5.62.2c3.06-1.01,5.88-3.36,6.55-6.52s-1.58-6.88-4.8-7.03"/>
  <path class="cls-5" d="M267.94,91.05c-1.66.59-3.5,1.05-5.14.43s-2.78-2.77-1.77-4.21c.01,2.88-1.7,5.91-4.48,6.65s-6.14-1.77-5.58-4.6c.61-3.12,4.77-4.21,6.1-7.09-2.36.01-5.42-.53-5.8-2.86-.34-2.1,2.1-3.72,4.23-3.66s4.1,1.12,6.19,1.53c-1.12-1.3-1.49-1.03-.45-2.39s3.07-1.87,4.62-1.13"/>
</svg>