<?xml version="1.0" encoding="UTF-8"?>
<svg id="poloroid_2" data-name="poloroid 2" xmlns="http://www.w3.org/2000/svg" viewBox="0 0 283 384">
  <defs>
    <style>
      .cls-1 {
        fill: #999;
      }

      .cls-1, .cls-2, .cls-3, .cls-4 {
        stroke-width: 0px;
      }

      .cls-5 {
        fill: none;
        stroke: #000;
        stroke-miterlimit: 10;
      }

      .cls-2 {
        fill: #a67c52;
      }

      .cls-4 {
        fill: #fff;
      }
    </style>
  </defs>
  <g>
    <rect class="cls-4" x="4.42" y="38.85" width="275" height="340"/>
    <path class="cls-3" d="M278.92,39.35v339H4.92V39.35h274M279.92,38.35H3.92v341h276V38.35h0Z"/>
  </g>
  <g>
    <rect class="cls-4" x="16.42" y="51.85" width="252" height="252"/>
    <path class="cls-3" d="M267.92,52.35v251H16.92V52.35h251M268.92,51.35H15.92v253h253V51.35h0Z"/>
  </g>
  <g>
    <rect class="cls-2" x="132.42" y="3.85" width="20" height="60"/>
    <path class="cls-3" d="M151.92,4.35v59h-19V4.35h19M152.92,3.35h-21v61h21V3.35h0Z"/>
  </g>
  <g>
    <path class="cls-1" d="M139.05,31.89c-4.62,0-5.79-.48-6.18-1.26-.2-.4-.29-1.05-.02-1.52.25-.42.79-.6,1.85-.6.62,0,1.38.06,2.26.13,1.21.09,2.72.21,4.46.21,2.25,0,4.09-.18,5.58-.33,1.04-.1,1.94-.19,2.68-.19,1.21,0,1.89.24,2.35.83.13.16.51.66.41,1.07-.33,1.34-5.53,1.48-11.03,1.62-.87.02-1.65.03-2.36.03Z"/>
    <path class="cls-3" d="M149.67,28.83c1.21,0,1.66.25,1.96.64.34.44.32.62.32.65-.24.97-6.45,1.13-10.55,1.24-.86.02-1.64.03-2.35.03-3.62,0-5.39-.3-5.74-.99-.14-.29-.2-.75-.03-1.04.06-.11.21-.35,1.42-.35.6,0,1.35.06,2.22.13,1.22.1,2.74.21,4.5.22h.05c2.22,0,4.08-.18,5.57-.33,1.03-.1,1.91-.19,2.63-.19M149.67,27.83c-1.85,0-4.5.52-8.2.52-.02,0-.03,0-.05,0-2.97,0-5.19-.34-6.72-.34-1.14,0-1.89.19-2.28.84-.36.61-.29,1.43,0,2,.53,1.04,1.92,1.53,6.63,1.53.71,0,1.5-.01,2.37-.03,6.77-.18,11.09-.32,11.5-2,.16-.65-.33-1.29-.5-1.5-.61-.79-1.5-1.02-2.74-1.02h0Z"/>
  </g>
  <path class="cls-5" d="M207.08,230.63c-10.02-13.27-23.31-24.65-28.98-40.29-4.29-11.83-4.56-26.44-14.59-34.03-6.24,5.05-11.33,11.52-14.77,18.78-7.77-5.68-15.97-11.92-19.05-21.04-1.45-4.29-1.63-8.92-1.29-13.43-.68,7.28-7.97,11.72-13.69,16.28-8.12,6.49-14.28,15.43-17.54,25.29-2.46,7.46-2.55,17.09-11.54,20.4-2.07.76-4.43.6-6.41,1.58-2.33,1.15-3.64,3.62-5.33,5.59s-4.53,3.59-6.8,2.32c5.43,3.37,9.48,8.89,11.07,15.07.9,3.51,1.04,7.17,1.16,10.79.24,6.76,3.7,21.74.75,27.75-2.51,5.12-12.56,6.13-17.58,7.79"/>
  <path class="cls-5" d="M98.18,192.22c-1.07,11.56,1.54,23.39-.91,34.73-.66,3.06-1.68,6.03-2.36,9.09-1.7,7.67-1.2,15.63-.69,23.46"/>
  <path class="cls-5" d="M128.01,106.55c0-1.81.02-3.71.9-5.3,1.05-1.92,3.14-3,5.17-3.81,5.72-2.27,11.98-3.18,18.1-2.62,1.75.16,3.53.45,5.07,1.29,1.78.97,3.09,2.6,4.29,4.23,3.42,4.68,6.26,9.8,8.42,15.18.75,1.87,1.43,3.87,1.08,5.85s-2.05,3.87-4.06,3.7c-1.01-.65-1.61-1.89-1.48-3.09-2.26,5.96,3.4,12.25,2.77,18.6-.25,2.56-1.52,4.89-2.76,7.15-2.57,4.68-5.15,9.36-7.72,14.04-.69,1.26-1.43,2.57-2.65,3.33-1.19.74-2.65.85-4.05.93-5.04.3-11.47-.26-13.09-5.04-.73-2.14-.16-4.48-.05-6.74.46-9.25-7.17-10.63-9.95-17.12-3.09-7.2-.01-22.66,0-30.6Z"/>
  <path class="cls-5" d="M171.62,222.72c.36,2.65,2.63,4.67,5.05,5.82s5.09,1.69,7.51,2.84c4.33,2.07,7.63,6.19,8.71,10.86"/>
  <path class="cls-5" d="M134.36,197.09c-1.23,10.24,1.01,21.45,8.41,28.64,5.32,5.16,12.61,7.67,19.64,10.02,6.7,2.24,15.94,1.19,22.64,3.43-4.25-1.02-8.82-.49-12.94-1.96s-7.65-6.34-5.42-10.1"/>
  <path class="cls-5" d="M102.57,197.75c2.1,18.65,11.76,36.35,26.32,48.2,3.77,3.07,8.13,5.85,12.99,6.05"/>
  <path class="cls-5" d="M61.36,272.84c-1.9-1.62-5.07-.49-6.42,1.61s-1.4,4.76-1.41,7.26c-.01,6.3-.02,12.66,1.3,18.82"/>
  <path class="cls-5" d="M257.81,222.36c-35.68,3.17-70.42,12.85-104.92,22.49-6.81,1.9-13.63,3.81-20.44,5.71-22.72,6.34-45.46,12.7-67.69,20.57"/>
  <path class="cls-5" d="M65.51,56.19c-2.96.02-3.82,4.02-3.73,6.98.45,14.58-1.64,35.54,3.37,49.3,3.79,10.42,26.7,5.21,36.81,4.92,1.17-.03,2.49-.14,3.22-1.05.57-.71.6-1.69.6-2.59.1-19.65.05-39.3-.15-58.95"/>
  <path class="cls-5" d="M52.48,52.04c-1.39,21.49,1.48,43,4.34,64.35-13.73.83-27.5,1.12-41.25.85"/>
  <path class="cls-5" d="M23.78,133.43c2.19,2.27,5.74,2.33,8.9,2.24,16.39-.48,32.79-.97,49.18-1.45,3.23-.1,6.55-.21,9.51-1.5,2.37-1.04,4.38-2.78,6.74-3.84,7.95-3.59,17.87,1.18,25.76-2.55"/>
  <path class="cls-5" d="M134.93,58.28v37.48"/>
  <path class="cls-5" d="M81.39,88.13c.36,2.73,8.28,50.59,4.83,51.33-2.43.45-4.14.41-6.3,1.62s-3.99,3.3-4.19,5.77c-.22,2.61,1.34,4.99,2.37,7.4,1.53,3.57,1.95,7.6,1.2,11.41,4.97.21,9.95.29,14.93.25.78,0,1.61-.03,2.28-.43.57-.34.95-.91,1.29-1.47,3.57-5.8,5.13-12.82,4.35-19.59-.11-.91-.31-1.93-1.07-2.45-.55-.38-1.27-.41-1.94-.41-7.16-.1-14.32-.05-21.48.15-.11.87-.22,1.75-.33,2.62"/>
  <path class="cls-5" d="M93.27,102.03c-5.46-1.15-11.28,4.01-10.78,9.57.2,2.25,1.92,4.75,4.14,4.35.81-.14,1.5-.65,2.1-1.21,2.87-2.67,4.22-6.87,3.45-10.71"/>
  <path class="cls-5" d="M78.09,90.77c-2.05-.78-4.15-1.57-6.35-1.63s-4.54.75-5.77,2.57c-1.65,2.45-.66,6.03,1.61,7.91s5.46,2.31,8.38,1.94c1.14-.14,2.3-.4,3.26-1.04,2.34-1.55,2.83-4.72,3.1-7.52.11-1.11.13-2.43-.76-3.12-.58-.45-1.38-.46-2.12-.45-2.33.02-4.66.05-6.98.07"/>
  <path class="cls-5" d="M88.41,75.61c-3.89.23-7.97,2.15-9.48,5.75s.88,8.61,4.77,8.7c2.52.05,4.75-1.87,5.83-4.15s1.25-4.87,1.4-7.39"/>
  <path class="cls-5" d="M181.1,53.29c-1.11,5.42-1.11,11.21-1.11,16.89.02,35.94.05,71.88.07,107.82,0,6.48,12.68,8.85,18.86,10.81,13.14,4.17,25.67,10.03,37.98,16.23,9.21,4.64,18.84,9.6,29.14,9.29"/>
  <path class="cls-5" d="M229.41,57.62c-1.83,42.53-3.21,85.09-4.14,127.65"/>
  <path class="cls-5" d="M190.46,113.07c5.92,1.97,12.65-.6,18.53,1.5,2.52.9,4.67,2.59,7.02,3.87,8.79,4.79,19.77,3.6,28.88,7.74,6.35,2.89,11.61,8.28,18.45,9.67"/>
  <path class="cls-5" d="M102.59,162.38c-12.88,4.97-25.49,10.63-38.5,15.26-15.08,5.37-30.65,9.33-46.46,11.82"/>
  <path class="cls-5" d="M67.41,301.16c.66-4.39,1.32-8.78,1.98-13.17.14-.9.3-1.86.91-2.53.72-.79,1.87-.98,2.93-1.13,15.47-2.17,30.88-4.82,46.19-7.95,15.09-3.09,30.09-6.65,45.08-10.21,2.64-.63,5.3-1.26,7.75-2.44,3.29-1.58,6.05-4.06,9.17-5.94,13.38-8.03,30.46-3.77,45.93-5.86,9.56-1.29,18.76-5.15,26.38-11.07"/>
  <path class="cls-5" d="M233.37,272.54c-12.66,11.45-31.77,14.44-42.91,27.36"/>
  <path class="cls-5" d="M231.65,279.04c1.12,7.25,5.42,13.94,11.55,17.97"/>
  <path class="cls-5" d="M207.29,291.96c3.23,3.13,6.85,5.86,10.76,8.1"/>
</svg>