<?xml version="1.0" encoding="UTF-8"?>
<svg id="Polaroid" xmlns="http://www.w3.org/2000/svg" xmlns:xlink="http://www.w3.org/1999/xlink" viewBox="0 0 284 379">
  <defs>
    <style>
      .cls-1 {
        fill: #999;
      }

      .cls-1, .cls-2, .cls-3, .cls-4 {
        stroke-width: 0px;
      }

      .cls-2 {
        fill: #a67c52;
      }

      .cls-4 {
        fill: #fff;
      }
    </style>
  </defs>
  <g>
    <rect class="cls-4" x="4.5" y="35.5" width="275" height="340"/>
    <path class="cls-3" d="M279,36v339H5V36h274M280,35H4v341h276V35h0Z"/>
  </g>
  <g>
    <rect class="cls-4" x="16.5" y="48.5" width="252" height="252"/>
    <path class="cls-3" d="M268,49v251H17V49h251M269,48H16v253h253V48h0Z"/>
  </g>
  <image width="1125" height="1224" transform="translate(16 48) scale(.22 .21)" xlink:href="../../../../Billeder/Visionboard/Billede af mig.jpg"/>
  <g>
    <rect class="cls-2" x="132.5" y=".5" width="20" height="60"/>
    <path class="cls-3" d="M152,1v59h-19V1h19M153,0h-21v61h21V0h0Z"/>
  </g>
  <g>
    <path class="cls-1" d="M139.13,28.53c-4.62,0-5.79-.48-6.18-1.26-.2-.4-.29-1.05-.02-1.52.25-.42.79-.6,1.85-.6.62,0,1.38.06,2.26.13,1.21.09,2.72.21,4.46.21,2.25,0,4.09-.18,5.58-.33,1.04-.1,1.94-.19,2.68-.19,1.21,0,1.89.24,2.35.83.13.16.51.66.41,1.07-.33,1.34-5.53,1.48-11.03,1.62-.87.02-1.65.03-2.36.03Z"/>
    <path class="cls-3" d="M149.76,25.48c1.21,0,1.66.25,1.96.64.34.44.32.62.32.65-.24.97-6.45,1.13-10.55,1.24-.86.02-1.64.03-2.35.03-3.62,0-5.39-.3-5.74-.99-.14-.29-.2-.75-.03-1.04.06-.11.21-.35,1.42-.35.6,0,1.35.06,2.22.13,1.22.1,2.74.21,4.5.22h.05c2.22,0,4.08-.18,5.57-.33,1.03-.1,1.91-.19,2.63-.19M149.76,24.48c-1.85,0-4.5.52-8.2.52-.02,0-.03,0-.05,0-2.97,0-5.19-.34-6.72-.34-1.14,0-1.89.19-2.28.84-.36.61-.29,1.43,0,2,.53,1.04,1.92,1.53,6.63,1.53.71,0,1.5-.01,2.37-.03,6.77-.18,11.09-.32,11.5-2,.16-.65-.33-1.29-.5-1.5-.61-.79-1.5-1.02-2.74-1.02h0Z"/>
  </g>
</svg>