<?xml version="1.0" encoding="UTF-8"?>
<svg id="Polaroid" xmlns="http://www.w3.org/2000/svg" viewBox="0 0 283.5 385">
  <defs>
    <style>
      .cls-1 {
        fill: #999;
      }

      .cls-1, .cls-2, .cls-3, .cls-4 {
        stroke-width: 0px;
      }

      .cls-5 {
        fill: none;
        stroke: #000;
        stroke-miterlimit: 10;
      }

      .cls-2 {
        fill: #a67c52;
      }

      .cls-4 {
        fill: #fff;
      }
    </style>
  </defs>
  <g>
    <rect class="cls-4" x="4.5" y="38.5" width="275" height="340"/>
    <path class="cls-3" d="M279,39v339H5V39h274M280,38H4v341h276V38h0Z"/>
  </g>
  <path class="cls-5" d="M16.05,213.84c7.54,2.33,15.36,3.71,23.24,4.11.95.05,1.98.06,2.73-.52.96-.74,1.08-2.11,1.45-3.27,1.29-3.98,5.85-5.64,9.5-7.71,8.48-4.8,13.89-13.98,22.58-18.41,2.74-1.39,5.76-2.29,8.21-4.14,3.72-2.81,5.6-7.36,8.16-11.25s6.77-7.53,11.36-6.69"/>
  <path class="cls-5" d="M15.45,220.22c.87-1.1,2.64-1.18,3.81-.4s1.77,2.21,1.86,3.61c-1.73-.32-3.5-.42-5.26-.3"/>
  <path class="cls-5" d="M17.29,227.41c2.6-.45,5.13.89,7.6,1.8,7.36,2.72,16,1.68,22.51-2.7,4.39-2.96,7.96-7.38,13.03-8.91,3.17-.96,6.8-.73,9.5-2.65.7-.5,1.41-1.16,2.27-1.1,1.71.13,1.79,2.53,2.26,4.18.91,3.16,4.74,4.54,8.03,4.34,7.03-.41,13.35-6.32,14.23-13.31.54-4.28-.71-8.88,1.1-12.8,1.71-3.7,5.86-5.99,7.06-9.89-.87-.3-1.74-.6-2.61-.9"/>
  <path class="cls-5" d="M107.15,189.66c1.29,1.69,2.6,3.42,3.23,5.45s.42,4.45-1.05,5.98c-.74.77-1.75,1.27-2.47,2.07-1.09,1.22-1.35,2.97-2.19,4.37-.66,1.11-1.66,1.96-2.62,2.82-4.48,4.01-8.51,8.54-11.97,13.46-3.01,4.28-5.63,8.96-6.73,14.08-1.23,5.71-1.06,12.74-6,15.87"/>
  <path class="cls-5" d="M80.06,252.87c1.44-1.94,4.5.54,4.79,2.93s-.26,5.28,1.57,6.85c1.25,1.08,3.21,1.08,4.38,2.24,1.51,1.51,1.03,4.23,2.45,5.82,1.47,1.65,4.07,1.24,6.28,1.2,5.74-.11,10.95,3.14,16.5,4.62,4.28,1.14,8.76,1.24,13.19,1.32,7.75.15,15.5.29,23.25.44,2.23.04,4.57.06,6.55-.96,1.38-.71,2.5-1.89,3.94-2.47,1.81-.74,3.88-.44,5.8-.82s3.94-2.03,3.47-3.93c-4.98-1.05-6.6-7.15-8.34-11.93-4.26-11.73-8.42-23.49-12.49-35.28-.68-1.96-1.36-3.98-1.19-6.04.17-2.1,1.2-4.03,1.69-6.07.78-3.2.24-6.57.47-9.86.39-5.55,3.11-10.9,7.37-14.49,1.85,3.01,3.31,7.32,3.28,10.86-.05,8.36.54,16.71,1.76,24.98,1.55-3.98,7.57-7.07,11.66-8.28,2.54-.75,5.1-1.51,7.74-1.69,1.65-.12,3.34-.01,4.93-.47,4.49-1.31,6.55-6.51,10.41-9.15,4.67-3.18,10.08-3.45,4.26-8.52-4.46-3.88-10.81-6.62-16.22-8.84-1.32-.54-2.67-1.06-3.81-1.92-1.39-1.05-2.37-2.54-3.49-3.87-2.83-3.36-6.62-5.76-10.34-8.1-2.75-1.73-5.64-3.5-8.88-3.75"/>
  <path class="cls-5" d="M193.22,206.86c2.2-.05,2.88,2.89,4.13,4.7,1.34,1.93,3.79,2.77,6.13,3.03s4.72.06,7.03.5c4.64.89,8.48,4.24,13.07,5.39,2.48.62,5.08.57,7.64.51,2.35-.05,4.69-.1,7.04-.16,1.08-.02,2.19-.06,3.15-.55s1.7-1.58,1.43-2.62c-2.27-.22-4.57-.23-6.85-.03,2.95-.19,5.55-1.9,7.96-3.6,3.68-2.6,7.72-6.5,6.47-10.82-2.32-.82-4.55,1.2-6.66,2.47-2.84,1.7-6.23,2.12-9.51,2.51-3.27.39-6.54.78-9.81,1.17-1.25.15-2.56.29-3.72-.2-1.04-.44-1.82-1.33-2.75-1.98-2.1-1.48-4.81-1.67-7.29-2.32s-5.14-2.17-5.55-4.7"/>
  <path class="cls-5" d="M123.08,150.56c.72,3.79,5.49,5.09,7.96,8.05,1.07,1.28,1.7,2.88,2.3,4.44,2.68,6.92,5.41,14.17,4.65,21.55-.08.83-.24,1.7-.8,2.31s-1.68.76-2.18.1c.85-2.63-1.5-5.74-4.26-5.65-1.35.05-2.91.66-3.91-.24-.42-.37-.61-.93-.77-1.46-.58-1.96-.87-4-.86-6.05.58,4.1,1,8.77-1.71,11.9-.77.89-1.75,1.59-2.48,2.52-1.07,1.37-1.52,3.22-1.18,4.92.47-2.17.93-4.42.5-6.6s-2.03-4.29-4.23-4.61c-1.98-.29-4.48.72-5.72-.86-.9-1.16-.32-2.84-.56-4.28-.35-2.05-2.72-3.5-4.7-2.86-1.48.47-2.48,1.81-3.68,2.8s-3.08,1.61-4.23.57c-1.75-1.57.16-4.76-1.1-6.73-2.3,1.55-4.41,3.38-6.28,5.42,3.04-4,5.69-8.24,10.06-10.72s3.38-8.5,4.85-13.08c.87-2.7,2.64-4.98,4.07-7.43,2.8-4.81,4.27-10.39,4.2-15.96-.02-1.67.11-3.79,1.69-4.34.93-.32,1.95.12,2.94.07,1.76-.09,3.01-1.67,4.37-2.8,3.31-2.75,8.45-2.99,12-.56,1.98,1.36,3.4,3.37,4.78,5.34,5.32,7.62,10.65,15.24,15.97,22.87,1.85,2.65,3.88,5.44,6.92,6.55,1.43.52,3.02.65,4.28,1.5.99.67,1.65,1.72,2.27,2.75,2.46,4.13,4.64,8.42,6.52,12.84-3.24.27-6.82.44-9.41-1.53-1.83-1.39-2.82-3.61-4.3-5.38s-4.06-3.1-6.04-1.93c-1.45,1.48-.25,4.03,1.36,5.34s3.7,2.31,4.39,4.27c.49,1.4.18,3.1,1.1,4.26.81,1.02,2.39,1.31,2.99,2.47,1.04,2-1.63,3.84-3.75,4.59s-4.7,2.85-3.43,4.71c-3.27-1.34-7.81,1.67-10.2-.93-1.6-1.74-.69-4.49-.9-6.85-.2-2.28-1.53-4.28-2.63-6.29-3.99-7.31-5.23-16.08-3.44-24.22"/>
  <path class="cls-5" d="M117.48,146.51c1.42,2.03,3.7,3.25,5.58,4.87,1.1.94,2.09,2.06,3.41,2.66,1.57.73,3.41.63,5.08.22,3.61-.89,6.9-3.32,8.46-6.69s1.19-7.66-1.22-10.49c-.85-1-1.95-1.85-2.45-3.06-1.71-4.12-1.06-6.45-6.33-7.17-2.61-.35-5.8.29-7.92,1.85-4.68,3.44-8.12,12.79-4.6,17.81Z"/>
  <path class="cls-5" d="M138.81,279.52c-.33.12.08-.55.28-.26s-.02.68-.02,1.03c0,2.07,2.28,3.28,4.22,4.02s4.22,1.93,4.25,4c.11,6.75,8.51,10.44,10.43,16.91"/>
  <path class="cls-5" d="M169.2,273.88l-.07-2.32c-.05,2.99,2.07,5.51,3.68,8.04,1.98,3.12,3.27,6.62,4.55,10.08,2.21,5.99,4.41,11.97,6.62,17.96"/>
  <path class="cls-5" d="M101.24,273.9c3.25,9.89,6.37,19.82,9.37,29.79"/>
  <path class="cls-5" d="M125.64,276.65c3.77,8.26,5.14,17.59,3.9,26.58"/>
  <path class="cls-5" d="M61.81,241.61v-22.63"/>
  <path class="cls-5" d="M61.77,200.19c.03-13.66.06-27.33.1-40.99,0-3.68.01-7.41-.96-10.96-2.38-8.68-6.77-18.19-14.23-23.51-4.66-3.32-9.85-6.13-13.41-10.61-3.07-3.87-5.26-9.2-10.04-10.46-2.48-.65-5.58-.19-7.15-2.21"/>
  <path class="cls-5" d="M66.34,195.34c1.1-8.53.63-17.09-.05-25.63-.63-7.89,3.34-13.15,6.91-20.18,1.39-2.74,2.79-5.5,4.71-7.9,2.03-2.54,4.58-4.61,7.11-6.65,3.77-3.05,7.54-6.09,11.31-9.14-1.88,4.46-10.6,2.86-14.6,5.59-4.81,3.29-6.48,9.54-10.21,14.01-1.59,1.91-3.56,3.49-5.11,5.44s-2.66,4.47-2.12,6.9"/>
  <path class="cls-5" d="M176.12,105.71c5.41,5.99,2.94,15.31,3.51,23.36.55,7.79,4.22,14.96,6.73,22.35,4.05,11.94,5.09,24.65,6.11,37.21"/>
  <path class="cls-5" d="M203.11,194.39c1.17-13.74.69-27.61-1.42-41.23-.83-5.38-2-10.91-5.21-15.31-1.72-2.36-4-4.34-5.33-6.94-2.83-5.57-.61-12.25-.88-18.49-.22-5.06-2.12-10.05-1.49-15.07.42-3.37,1.95-6.48,3.28-9.6,4.2-9.92,6.45-20.54,8.67-31.08"/>
  <path class="cls-5" d="M192.36,52.83c-1.67,12.76-4.6,25.36-8.73,37.55-.59-5.48.57-13.16-1.34-18.33-.64-1.74-1.65-3.31-2.56-4.92-2.27-3.99-4-8.3-5.13-12.75"/>
  <path class="cls-5" d="M163.31,51.91c2.99,3.99,2.73,9.64,5.35,13.88,1.08,1.74,2.6,3.18,3.62,4.96,2.29,3.98,1.7,8.9,1.86,13.49.3,8.33,3.31,16.3,6.28,24.09"/>
  <path class="cls-5" d="M195.1,155.3c-1.48-5.42-.74-11.41,2.02-16.31,1.38-2.45,3.22-4.61,4.63-7.05.94-1.62,1.73-3.44,3.28-4.5,3.58-2.47,8.85.46,12.73-1.51,1.38-.7,2.4-1.94,3.7-2.79,5.25-3.41,13.52.44,17.89-4.04"/>
  <path class="cls-5" d="M63.55,154.45c-.06-8.71.71-17.43,2.3-25.99,3.07-16.48,9.19-32.56,9.23-49.33.02-8.99-1.26-19.35,5.14-25.66"/>
  <path class="cls-5" d="M16.55,101.05c4.39-.35,8.87-.29,13.09.97s8.17,3.81,10.44,7.57c.84,1.39,1.47,2.96,2.68,4.05,1.77,1.6,4.46,1.87,6.2,3.51.85.8,1.39,1.87,2,2.87,2.47,4.08,5.54,9.09,9.13,12.22-2.17-9.87,2.54-19.81,3.74-29.84.44-3.64.42-7.39,1.72-10.82.73-1.92,1.85-3.69,2.51-5.63.67-1.96.85-4.04,1.03-6.1.72-8.36,1.44-16.71,2.16-25.07"/>
  <path class="cls-5" d="M67.87,217.9c2.05,5.18,2.15,11.1.29,16.35"/>
  <rect class="cls-5" x="15.5" y="51.5" width="254" height="254"/>
  <g>
    <rect class="cls-2" x="132.5" y="3.5" width="20" height="60"/>
    <path class="cls-3" d="M152,4v59h-19V4h19M153,3h-21v61h21V3h0Z"/>
  </g>
  <g>
    <path class="cls-1" d="M139.13,31.53c-4.62,0-5.79-.48-6.18-1.26-.2-.4-.29-1.05-.02-1.52.25-.42.79-.6,1.85-.6.62,0,1.38.06,2.26.13,1.21.09,2.72.21,4.46.21,2.25,0,4.09-.18,5.58-.33,1.04-.1,1.94-.19,2.68-.19,1.21,0,1.89.24,2.35.83.13.16.51.66.41,1.07-.33,1.34-5.53,1.48-11.03,1.62-.87.02-1.65.03-2.36.03Z"/>
    <path class="cls-3" d="M149.76,28.48c1.21,0,1.66.25,1.96.64.34.44.32.62.32.65-.24.97-6.45,1.13-10.55,1.24-.86.02-1.64.03-2.35.03-3.62,0-5.39-.3-5.74-.99-.14-.29-.2-.75-.03-1.04.06-.11.21-.35,1.42-.35.6,0,1.35.06,2.22.13,1.22.1,2.74.21,4.5.22h.05c2.22,0,4.08-.18,5.57-.33,1.03-.1,1.91-.19,2.63-.19M149.76,27.48c-1.85,0-4.5.52-8.2.52-.02,0-.03,0-.05,0-2.97,0-5.19-.34-6.72-.34-1.14,0-1.89.19-2.28.84-.36.61-.29,1.43,0,2,.53,1.04,1.92,1.53,6.63,1.53.71,0,1.5-.01,2.37-.03,6.77-.18,11.09-.32,11.5-2,.16-.65-.33-1.29-.5-1.5-.61-.79-1.5-1.02-2.74-1.02h0Z"/>
  </g>
</svg>